<svg width="18" height="18" viewBox="0 0 18 18" fill="none" xmlns="http://www.w3.org/2000/svg">
<path d="M16.47 12.709C16.151 12.5602 15.7541 12.375 15.0267 12.375C14.2992 12.375 13.9023 12.5602 13.5834 12.709C13.3098 12.8366 13.0937 12.9375 12.6158 12.9375C12.1378 12.9375 11.9218 12.8367 11.6483 12.709C11.3294 12.5602 10.9325 12.375 10.2051 12.375C9.47756 12.375 9.08072 12.5602 8.76185 12.709C8.4883 12.8366 8.27227 12.9375 7.79439 12.9375C7.31651 12.9375 7.10051 12.8367 6.82699 12.709C6.50813 12.5602 6.11128 12.375 5.38383 12.375C4.65637 12.375 4.2595 12.5602 3.94063 12.709C3.66708 12.8366 3.45104 12.9375 2.97316 12.9375C2.49529 12.9375 2.27925 12.8367 2.0057 12.709C1.68683 12.5602 1.28995 12.375 0.5625 12.375V13.5C1.04038 13.5 1.25641 13.6008 1.52996 13.7285C1.84883 13.8773 2.24571 14.0625 2.97316 14.0625C3.70062 14.0625 4.0975 13.8773 4.41636 13.7285C4.68991 13.6009 4.90595 13.5 5.38383 13.5C5.86171 13.5 6.07771 13.6008 6.35122 13.7285C6.67009 13.8773 7.06693 14.0625 7.79439 14.0625C8.52184 14.0625 8.91872 13.8773 9.23759 13.7285C9.51114 13.6009 9.72721 13.5 10.2051 13.5C10.6829 13.5 10.899 13.6008 11.1726 13.7285C11.4915 13.8773 11.8883 14.0625 12.6158 14.0625C13.3433 14.0625 13.7402 13.8773 14.0591 13.7285C14.3326 13.6009 14.5487 13.5 15.0267 13.5C15.5046 13.5 15.7207 13.6008 15.9942 13.7285C16.3131 13.8773 16.71 14.0625 17.4375 14.0625V12.9375C16.9596 12.9375 16.7435 12.8367 16.47 12.709ZM15.0267 15.75C14.2992 15.75 13.9023 15.9352 13.5834 16.084C13.3098 16.2116 13.0937 16.3125 12.6158 16.3125C12.1378 16.3125 11.9218 16.2117 11.6483 16.084C11.3294 15.9352 10.9325 15.75 10.2051 15.75C9.47756 15.75 9.08072 15.9352 8.76185 16.084C8.4883 16.2116 8.27227 16.3125 7.79439 16.3125C7.31651 16.3125 7.10051 16.2117 6.82699 16.084C6.50813 15.9352 6.11128 15.75 5.38383 15.75C4.65637 15.75 4.2595 15.9352 3.94063 16.084C3.66708 16.2116 3.45104 16.3125 2.97316 16.3125C2.49529 16.3125 2.27925 16.2117 2.0057 16.084C1.68683 15.9352 1.28995 15.75 0.5625 15.75V16.875C1.04038 16.875 1.25641 16.9758 1.52996 17.1035C1.84883 17.2523 2.24571 17.4375 2.97316 17.4375C3.70062 17.4375 4.0975 17.2523 4.41636 17.1035C4.68991 16.9759 4.90595 16.875 5.38383 16.875C5.86171 16.875 6.07771 16.9758 6.35122 17.1035C6.67009 17.2523 7.06693 17.4375 7.79439 17.4375C8.52184 17.4375 8.91872 17.2523 9.23759 17.1035C9.51114 16.9759 9.72721 16.875 10.2051 16.875C10.6829 16.875 10.899 16.9758 11.1726 17.1035C11.4915 17.2523 11.8883 17.4375 12.6158 17.4375C13.3433 17.4375 13.7402 17.2523 14.0591 17.1035C14.3326 16.9759 14.5487 16.875 15.0267 16.875C15.5046 16.875 15.7207 16.9758 15.9942 17.1035C16.3131 17.2523 16.71 17.4375 17.4375 17.4375V16.3125C16.9596 16.3125 16.7435 16.2117 16.47 16.084C16.151 15.9352 15.7541 15.75 15.0267 15.75ZM8.71875 9.5625H13.7812V11.5312H14.9062V4.07384C14.9058 3.7324 15.0094 3.39894 15.2032 3.11783L16.96 0.5625H15.5947L14.2761 2.48048C13.9531 2.949 13.7805 3.50478 13.7812 4.07384V5.625H8.71875V4.07384C8.71831 3.7324 8.82188 3.39894 9.01568 3.11783L10.7725 0.5625H9.40722L8.08861 2.48048C7.76563 2.949 7.59301 3.50478 7.59375 4.07384V11.5312H8.71875V9.5625ZM8.71875 6.75H13.7812V8.4375H8.71875V6.75Z" fill="#4199C7"/>
</svg>
