<svg width="14" height="17" viewBox="0 0 14 17" fill="none" xmlns="http://www.w3.org/2000/svg">
<path d="M6 12.5002V8.00019M6 8.00019V1.55769C5.99996 1.48323 6.01839 1.40991 6.05365 1.34433C6.08892 1.27874 6.1399 1.22293 6.20205 1.1819C6.26419 1.14087 6.33554 1.1159 6.40971 1.10923C6.48387 1.10256 6.55854 1.1144 6.627 1.14369L12.96 3.85869C13.0395 3.89278 13.1075 3.94907 13.1559 4.02082C13.2042 4.09257 13.2309 4.17674 13.2326 4.26325C13.2344 4.34975 13.2111 4.43493 13.1657 4.50857C13.1203 4.5822 13.0546 4.64119 12.9765 4.67844L6 8.00019ZM6 15.5002C8.8995 15.5002 11.25 14.3249 11.25 12.8752C11.25 11.4254 8.8995 10.2502 6 10.2502C3.1005 10.2502 0.75 11.4254 0.75 12.8752C0.75 14.3249 3.1005 15.5002 6 15.5002Z" stroke="#4199C7" stroke-width="1.5" stroke-linecap="round" stroke-linejoin="round"/>
</svg>
